<svg width="162" height="37" viewBox="0 0 162 37" fill="none" xmlns="http://www.w3.org/2000/svg">
<g clip-path="url(#clip0_10_81)">
<path fill-rule="evenodd" clip-rule="evenodd" d="M154.373 2.70654L161.139 2.74372C161.139 2.74372 148.56 19.7888 147.533 21.178C147.199 21.6279 146.692 22.113 146.435 22.7144C145.786 24.2262 145.119 27.5424 145.119 27.5424L138.928 27.5731C138.928 27.5731 139.891 24.1166 139.852 22.2754C139.817 20.6668 138.996 19.0605 138.535 17.4473C138.07 15.8146 137.438 12.6192 137.438 12.6192H143.802L144.68 16.1306L154.373 2.70654Z" fill="white"/>
<path fill-rule="evenodd" clip-rule="evenodd" d="M141.561 6.30137C142.81 7.05421 143.576 11.2062 143.576 11.2062C143.576 11.2062 137.043 11.3026 133.487 11.3026H130.415L126.684 27.5425H120.979C120.979 27.5425 124.529 9.89392 125.368 6.69421C125.64 5.65851 127.229 5.83604 129.912 5.83604H134.198C136.966 5.83604 140.201 5.48285 141.561 6.30137Z" fill="white"/>
<path fill-rule="evenodd" clip-rule="evenodd" d="M114.998 14.2107C114.998 14.2107 115.176 13.1682 114.395 11.9612C113.728 10.932 113.111 10.6928 111.356 10.638C106.398 10.4822 106.494 14.1559 106.494 14.1559L114.998 14.2107ZM120.375 10.0038C121.102 12.6242 119.717 18.782 119.717 18.782C119.717 18.782 112.485 18.6612 108.525 18.782C107.293 18.8195 105.819 18.6481 105.452 19.221C104.936 20.024 105.64 21.2598 106.238 21.7819C106.925 22.3832 108.263 22.4514 108.744 22.5127C111.959 22.921 118.688 22.618 118.688 22.618L117.522 27.7795C117.522 27.7795 108.013 28.256 103.257 27.1211C102.318 26.8974 101.438 26.4454 100.843 25.8044C100.681 25.6291 100.54 25.3899 100.387 25.1836C100.264 25.0188 99.9065 24.4769 99.7461 24.0487C98.6599 21.1542 99.8734 15.6086 101.063 12.6372C101.201 12.2927 101.374 11.8562 101.557 11.485C101.785 11.0222 101.978 10.4998 102.16 10.2232C102.283 10.0323 102.435 9.90938 102.562 9.72938C102.709 9.51654 102.88 9.31021 103.038 9.12618C103.477 8.61685 103.975 8.25686 104.574 7.80949C106.556 6.32581 110.142 5.17363 114.45 5.6148C116.071 5.78148 118.521 6.36082 119.717 8.02884C120.037 8.47434 120.195 9.35854 120.375 10.0038Z" fill="white"/>
<path fill-rule="evenodd" clip-rule="evenodd" d="M94.2048 5.81604L99.7373 5.7832C99.7373 5.7832 96.6541 20.4099 95.0828 27.5424H88.7183C84.2701 27.5424 80.3089 28.0932 78.6235 24.9087C76.9886 21.8168 78.5488 16.7319 79.2818 13.2775C79.7998 10.8328 80.8907 5.83587 80.8907 5.83587L86.6228 5.7832C86.6228 5.7832 85.0031 13.5628 84.3293 17.4472C84.0879 18.8386 83.5901 20.1488 84.1099 21.178C84.6037 22.157 85.2949 22.227 87.4016 22.2753C88.069 22.2908 90.2547 22.2753 90.2547 22.2753L94.2048 5.81604Z" fill="white"/>
<path fill-rule="evenodd" clip-rule="evenodd" d="M68.3091 16.3499C68.8884 14.2915 69.7332 12.0596 69.6257 10.2051C69.5096 8.22139 67.8462 6.4152 66.773 6.03568C63.5405 4.89434 60.5142 6.48986 59.3116 7.79106C57.7554 9.47674 57.2287 11.4453 56.6779 14.1555C56.2677 16.1677 55.9318 18.2921 56.6779 19.8612C57.9989 22.6353 62.1181 22.0296 66.5534 22.0559C67.2117 20.2916 67.756 18.3097 68.3091 16.3499ZM75.9902 8.23006C76.6222 12.8255 74.1973 17.8974 72.5271 22.3081C74.2301 22.4618 75.7225 22.2843 75.83 22.4113C75.9418 22.5761 74.6887 27.6762 74.2518 27.6892C72.9001 27.7245 68.4212 27.7617 66.5534 27.7617C60.4591 27.7617 54.7577 28.1589 51.8501 25.1283C50.6694 23.8971 49.8531 21.7858 49.6554 20.3002C49.3261 17.8202 49.7388 15.0902 50.3138 12.8388C50.8339 10.8064 51.501 8.88841 52.5085 7.13272C55.0693 2.66247 59.5244 -0.655588 66.9924 0.110262C68.4407 0.25959 70.5211 0.89377 71.8204 1.6463C71.9103 1.69928 72.2244 1.94929 72.2966 1.99328C74.0523 3.11046 75.6522 5.77668 75.9902 8.23006Z" fill="white"/>
<path fill-rule="evenodd" clip-rule="evenodd" d="M49.0256 5.84226C48.6569 7.52111 48.2882 9.42397 47.8997 11.083H41.7549C42.2311 9.24397 42.5955 7.41578 43.0716 5.81592C45.038 5.81592 46.8662 5.84226 49.0256 5.84226Z" fill="white"/>
<path fill-rule="evenodd" clip-rule="evenodd" d="M41.5356 12.6196H47.4607C46.6862 16.908 45.1523 23.8251 43.9496 28.6398C43.1968 31.653 42.6943 33.8521 40.6576 35.443C40.4754 35.5858 40.3704 35.5179 40.2189 35.6626C39.8434 36.0204 38.1075 36.4353 37.1465 36.5403C35.5838 36.7095 33.8173 36.5623 31.8971 36.5229C32.3996 34.6861 32.9681 32.4806 33.4158 30.8345C38.0967 31.4009 38.2154 26.9765 39.1215 22.7147C39.6461 20.2524 41.2351 13.6073 41.5356 12.6196Z" fill="white"/>
<path fill-rule="evenodd" clip-rule="evenodd" d="M27.7097 23.8116L27.5827 24.1406C25.4187 28.354 21.5848 30.9394 16.116 31.0534C13.5595 31.1061 11.1235 30.4502 9.53227 29.7367C6.09803 28.1939 3.20967 25.3325 1.63212 22.2753C-0.630723 17.8927 -1.03875 11.7963 3.66633 7.24268C3.73883 7.24268 3.09566 8.23004 3.16816 8.23004L3.03866 8.65138C-0.351894 19.2664 10.094 28.363 20.2483 27.3227C22.6886 27.0727 25.8007 25.7361 27.7097 23.8116Z" fill="#21609B"/>
<path fill-rule="evenodd" clip-rule="evenodd" d="M21.565 19.4225C24.1196 19.4402 26.788 18.2462 28.3681 16.5698C26.9857 20.079 22.983 22.3347 17.6149 21.6172C13.1205 21.0159 8.8389 16.493 8.39774 11.9611C8.07522 8.66287 9.22493 6.69434 11.1191 4.30664C10.4608 5.55548 10.2148 6.51868 10.1534 7.13303C9.43374 14.2676 15.8527 19.3853 21.565 19.4225Z" fill="#21609B"/>
<path fill-rule="evenodd" clip-rule="evenodd" d="M28.1116 10.5605C27.7144 11.4714 25.4277 13.1917 24.418 13.4068C20.4196 14.2584 17.8587 12.3624 16.5176 10.2049C16.318 9.88232 15.9494 9.00246 15.8834 8.77847C15.3632 7.00977 15.6024 4.33456 17.1542 2.94971C16.6867 4.2664 16.6186 5.79593 16.8645 6.79011C17.0136 7.39145 17.4677 8.44078 17.9222 9.10098C18.7494 10.3037 19.2739 10.5959 20.3363 11.2344C20.8146 11.5219 21.328 11.7524 21.5498 11.8159C22.557 12.1121 24.6835 12.8934 28.1116 10.5605Z" fill="#21609B"/>
</g>
<defs>
<clipPath id="clip0_10_81">
<rect width="162" height="37" fill="white"/>
</clipPath>
</defs>
</svg>
